HIERARCHY
ROOT Hips
{
	OFFSET 0.000000 0.000000 0.000000
	CHANNELS 6 Xposition Yposition Zposition Zrotation Yrotation Xrotation 
	JOINT LHipJoint
	{
		OFFSET 0.000000 0.000000 0.000000
		CHANNELS 3 Zrotation Yrotation Xrotation
		JOINT LeftUpLeg
		{
			OFFSET 1.363060 -1.794630 0.839290
			CHANNELS 3 Zrotation Yrotation Xrotation
			JOINT LeftLeg
			{
				OFFSET 2.448110 -6.726130 0.000000
				CHANNELS 3 Zrotation Yrotation Xrotation
				JOINT LeftFoot
				{
					OFFSET 2.562200 -7.039590 0.000000
					CHANNELS 3 Zrotation Yrotation Xrotation
					JOINT LeftToeBase
					{
						OFFSET 0.157640 -0.433110 2.322550
						CHANNELS 3 Zrotation Yrotation Xrotation
						End Site
						{
							OFFSET 0.000000 0.000000 0.000000
						}
					}
				}
			}
		}
	}
	JOINT RHipJoint
	{
		OFFSET 0.000000 0.000000 0.000000
		CHANNELS 3 Zrotation Yrotation Xrotation
		JOINT RightUpLeg
		{
			OFFSET -1.305520 -1.794630 0.839290
			CHANNELS 3 Zrotation Yrotation Xrotation
			JOINT RightLeg
			{
				OFFSET -2.542530 -6.985550 0.000000
				CHANNELS 3 Zrotation Yrotation Xrotation
				JOINT RightFoot
				{
					OFFSET -2.568260 -7.056230 0.000000
					CHANNELS 3 Zrotation Yrotation Xrotation
					JOINT RightToeBase
					{
						OFFSET -0.164730 -0.452590 2.363150
						CHANNELS 3 Zrotation Yrotation Xrotation
						End Site
						{
							OFFSET 0.000000 0.000000 0.000000
						}
					}
				}
			}
		}
	}
}
MOTION
Frames: 17
Frame Time: 0.008333
-11.609772 16.862018 -0.679044 -18.181637 80.308053 -6.590857 -11.432761 5.421352 1.005157 -6.814995 10.462401 9.710043 -1.390780 0.806950 10.606590 0.192197 -0.385798 9.332675 -0.026100 -0.000000 -73.295501 7.105588 -1.483216 7.090890 13.191632 15.370232 -30.140567 3.960140 0.971898 3.502111 0.710919 2.417347 5.732624 -0.200800 -0.000000 -25.386800
-11.440972 16.881023 -0.672100 -20.921574 79.939421 -9.391757 -11.539971 5.365260 0.976393 -6.209127 10.301187 9.512152 -1.181030 0.938324 12.002909 0.271189 -0.073466 10.618868 0.014000 -0.000000 -74.623699 6.918709 -1.584572 7.141439 13.822591 16.098562 -29.720375 4.002876 0.843565 4.514327 0.694115 2.530623 5.061171 -0.168900 0.000000 -21.222600
-11.274542 16.901843 -0.662387 -23.082916 79.577438 -11.631445 -11.648357 5.312846 0.944931 -5.678222 10.118727 9.240942 -0.972788 1.073726 13.532459 0.357004 0.171944 12.035731 0.038000 0.000000 -75.587199 6.736626 -1.660957 7.166633 14.416955 16.754443 -29.201869 4.044163 0.743106 5.427016 0.658913 2.573289 4.180006 -0.159100 0.000000 -16.560901
-11.110749 16.924042 -0.649438 -24.726367 79.240995 -13.368236 -11.751667 5.267272 0.910296 -5.221757 9.944250 8.873895 -0.770693 1.211069 15.207725 0.450300 0.332762 13.584661 0.035800 -0.000000 -76.111101 6.573145 -1.711531 7.166962 14.961329 17.318192 -28.589853 4.081648 0.670012 6.217714 0.607622 2.550687 3.160705 -0.165900 -0.000000 -11.585100
-10.949776 16.947149 -0.633148 -25.941934 78.946652 -14.690799 -11.846579 5.228759 0.870685 -4.828089 9.810825 8.395000 -0.578177 1.346789 17.033138 0.552589 0.409478 15.252275 0.001600 0.000000 -76.118199 6.437912 -1.738744 7.143885 15.449744 17.773840 -27.889789 4.113556 0.622434 6.866866 0.543854 2.471394 2.087032 -0.182600 0.000000 -6.574000
-10.791758 16.970635 -0.613847 -26.858733 78.705258 -15.730344 -11.933781 5.193962 0.821531 -4.470163 9.755468 7.798623 -0.397077 1.476643 19.006117 0.665708 0.420222 17.009279 -0.063500 -0.000001 -75.536500 6.333236 -1.747080 7.098600 15.891992 18.111101 -27.103152 4.141197 0.599053 7.360800 0.471529 2.349234 1.012860 -0.203000 0.000000 -1.548600
-10.636513 16.994119 -0.591405 -27.500037 78.524424 -16.503239 -12.009528 5.162573 0.765478 -4.154946 9.786113 7.076756 -0.231208 1.596505 21.109990 0.792837 0.434439 18.806821 -0.134600 -0.000000 -74.291700 6.266952 -1.741736 7.035349 16.273915 18.319481 -26.257950 4.160356 0.592826 7.705610 0.398252 2.198195 0.054164 179.777300 -0.000000 -2.677200
-10.484017 17.017121 -0.566501 -27.982971 78.404248 -17.130204 -12.076109 5.129227 0.697647 -3.855560 9.924659 6.239838 -0.081601 1.703692 23.327330 0.934864 0.521771 20.580336 -0.178500 0.000000 -72.348900 6.234273 -1.727956 6.955144 16.614681 18.397194 -25.359640 4.174649 0.601600 7.910953 0.328559 2.039830 -0.783438 179.761400 -0.000000 -6.299300
-10.333999 17.039347 -0.539447 -28.341788 78.342378 -17.641468 -12.132036 5.091999 0.618771 -3.572606 10.169544 5.294386 0.049529 1.797432 25.634423 1.091845 0.781537 22.249941 -0.140200 -0.000001 -69.704900 6.234633 -1.710638 6.861632 16.914071 18.345122 -24.434181 4.183561 0.619517 8.003074 0.268231 1.892798 -1.462225 179.750500 -0.000001 -8.979199
-10.186198 17.060530 -0.510790 -28.631046 78.332343 -18.090733 -12.177444 5.047991 0.527466 -3.299310 10.517307 4.254278 0.161726 1.879225 28.006732 1.261911 1.306308 23.727898 0.039600 0.000000 -66.416900 6.262543 -1.693527 6.757281 17.182404 18.171133 -23.498951 4.189256 0.643157 8.009873 0.220152 1.774402 -1.996927 179.745000 0.000000 -10.827100
-10.040346 17.080515 -0.481054 -28.877595 78.365499 -18.503206 -12.211723 4.995995 0.424649 -3.037717 10.952733 3.135228 0.255603 1.952365 30.416630 1.442281 2.174857 24.924957 0.415401 -0.000000 -62.612899 6.312950 -1.679500 6.644433 17.425499 17.884882 -22.574304 4.193124 0.668639 7.967189 0.186103 1.700639 -2.412888 179.745700 -0.000001 -11.945300
-9.896355 17.099173 -0.450708 -29.132035 78.430637 -18.929100 -12.235941 4.933239 0.307440 -2.778765 11.463333 1.955481 0.333496 2.021483 32.840001 1.629480 3.421650 25.759610 1.013300 -0.000000 -58.445500 6.377224 -1.669613 6.526390 17.654482 17.516134 -21.665035 4.196644 0.694854 7.892471 0.163015 1.663604 -2.744694 179.750400 0.000000 -12.551501
-9.754012 17.116498 -0.420027 -29.392143 78.518700 -19.360377 -12.249138 4.860342 0.179474 -2.533751 12.016865 0.727610 0.397806 2.091171 35.248582 1.820001 5.041655 26.160893 1.825800 0.000000 -54.127500 6.450807 -1.664206 6.406472 17.868017 17.087875 -20.788565 4.199312 0.719176 7.815184 0.148828 1.661154 -3.021791 179.758700 0.000000 -12.718400
-9.613102 17.132601 -0.389314 -29.625590 78.622628 -19.760276 -12.250258 4.780046 0.047295 -2.321862 12.574183 -0.535994 0.451126 2.165386 37.613018 2.010195 6.974980 26.084421 2.800900 -0.000000 -49.873100 6.531233 -1.662946 6.285957 18.060396 16.614292 -19.962430 4.200201 0.738883 7.768014 0.142103 1.696921 -3.277604 179.771300 0.000000 -12.538600
-9.473591 17.147613 -0.358727 -29.817245 78.735498 -20.110648 -12.239764 4.694130 -0.085234 -2.152570 13.101732 -1.822890 0.496097 2.247130 39.907846 2.195780 9.109542 25.513129 3.844300 0.000000 -45.830400 6.614711 -1.664326 6.165844 18.229587 16.118827 -19.188830 4.198494 0.753477 7.764086 0.139155 1.759581 -3.540112 179.786900 -0.000000 -12.150400
-9.335431 17.161708 -0.328084 -29.953803 78.856492 -20.385990 -12.218231 4.604377 -0.211928 -2.037414 13.560047 -3.136888 0.534754 2.337510 42.115288 2.372076 11.304053 24.465969 4.841299 0.000000 -42.136000 6.698023 -1.665944 6.051378 18.367662 15.637285 -18.473525 4.192081 0.764427 7.799128 0.134435 1.820738 -3.820948 179.802400 0.000000 -11.617100
-9.198689 17.175067 -0.297551 -29.993711 78.984250 -20.545564 -12.186418 4.514532 -0.326256 -1.990286 13.917324 -4.466745 0.568269 2.436117 44.210834 2.534259 13.418602 22.992826 5.683600 0.000001 -38.810600 6.781051 -1.666308 5.940279 18.469044 15.173768 -17.813052 4.180172 0.771530 7.878814 0.127134 1.880412 -4.132914 179.818000 -0.000000 -11.026899
